<mxfile host="app.diagrams.net" agent="Mozilla/5.0 (Windows NT 10.0; Win64; x64) AppleWebKit/537.36 (KHTML, like Gecko) Chrome/131.0.0.0 Safari/537.36" version="25.0.3">
  <diagram name="第 1 页" id="WmCBzYUsToEdSdzeFOnP">
    <mxGraphModel dx="1927" dy="655" grid="1" gridSize="10" guides="1" tooltips="1" connect="1" arrows="1" fold="1" page="1" pageScale="1" pageWidth="1169" pageHeight="827" math="0" shadow="0">
      <root>
        <mxCell id="0" />
        <mxCell id="1" parent="0" />
        <mxCell id="H0pLZdyPVKQFM28tcbeX-1" value="产品愿景和战略（Product Vision &amp;amp; Strategy）" style="text;html=1;align=center;verticalAlign=middle;resizable=0;points=[];autosize=1;strokeColor=none;fillColor=none;" vertex="1" parent="1">
          <mxGeometry x="20" y="10" width="270" height="30" as="geometry" />
        </mxCell>
        <mxCell id="H0pLZdyPVKQFM28tcbeX-2" value="" style="swimlane;startSize=0;" vertex="1" parent="1">
          <mxGeometry x="30" y="70" width="520" height="260" as="geometry" />
        </mxCell>
        <mxCell id="H0pLZdyPVKQFM28tcbeX-7" value="&lt;p data-pm-slice=&quot;1 1 []&quot;&gt;&amp;nbsp; &amp;nbsp; &amp;nbsp; &amp;nbsp; 愿景：&amp;nbsp; &amp;nbsp; &amp;nbsp;构建一个高效、易用、安全的运维平台，助力公司自动化运维转型，&lt;span style=&quot;background-color: initial;&quot;&gt;提&lt;/span&gt;&lt;/p&gt;&lt;p data-pm-slice=&quot;1 1 []&quot;&gt;&lt;span style=&quot;background-color: initial;&quot;&gt;&amp;nbsp; &amp;nbsp; &amp;nbsp; &amp;nbsp; &amp;nbsp; &amp;nbsp; &amp;nbsp; &amp;nbsp; &amp;nbsp; &amp;nbsp; &amp;nbsp; &amp;nbsp; &amp;nbsp; &amp;nbsp; &amp;nbsp; &amp;nbsp;升业务&lt;/span&gt;&lt;span style=&quot;background-color: initial;&quot;&gt;运作效率，&lt;/span&gt;&lt;span style=&quot;background-color: initial;&quot;&gt;实现运维与业务目标的深度融合的同时为公司降本增效。&lt;/span&gt;&lt;/p&gt;" style="rounded=0;whiteSpace=wrap;html=1;" vertex="1" parent="H0pLZdyPVKQFM28tcbeX-2">
          <mxGeometry width="520" height="60" as="geometry" />
        </mxCell>
        <mxCell id="H0pLZdyPVKQFM28tcbeX-4" value="" style="ellipse;whiteSpace=wrap;html=1;aspect=fixed;" vertex="1" parent="H0pLZdyPVKQFM28tcbeX-2">
          <mxGeometry x="10" y="10" width="40" height="40" as="geometry" />
        </mxCell>
        <mxCell id="H0pLZdyPVKQFM28tcbeX-3" value="" style="shape=mxgraph.signs.healthcare.eye;html=1;pointerEvents=1;fillColor=#000000;strokeColor=none;verticalLabelPosition=bottom;verticalAlign=top;align=center;" vertex="1" parent="H0pLZdyPVKQFM28tcbeX-2">
          <mxGeometry x="10" y="20" width="40" height="20" as="geometry" />
        </mxCell>
        <mxCell id="H0pLZdyPVKQFM28tcbeX-10" value="" style="ellipse;whiteSpace=wrap;html=1;aspect=fixed;" vertex="1" parent="H0pLZdyPVKQFM28tcbeX-2">
          <mxGeometry x="10" y="70" width="40" height="40" as="geometry" />
        </mxCell>
        <mxCell id="H0pLZdyPVKQFM28tcbeX-8" value="" style="verticalLabelPosition=bottom;sketch=0;html=1;fillColor=#282828;strokeColor=none;verticalAlign=top;pointerEvents=1;align=center;shape=mxgraph.cisco_safe.people_places_things_icons.icon9;" vertex="1" parent="H0pLZdyPVKQFM28tcbeX-2">
          <mxGeometry x="17.5" y="80" width="25" height="20" as="geometry" />
        </mxCell>
        <mxCell id="H0pLZdyPVKQFM28tcbeX-11" value="目标&lt;div&gt;群体&lt;/div&gt;" style="text;html=1;align=center;verticalAlign=middle;resizable=0;points=[];autosize=1;strokeColor=none;fillColor=none;" vertex="1" parent="H0pLZdyPVKQFM28tcbeX-2">
          <mxGeometry x="50" y="70" width="50" height="40" as="geometry" />
        </mxCell>
        <mxCell id="H0pLZdyPVKQFM28tcbeX-12" value="" style="endArrow=none;html=1;rounded=0;entryX=0.25;entryY=1;entryDx=0;entryDy=0;exitX=0.25;exitY=1;exitDx=0;exitDy=0;" edge="1" parent="H0pLZdyPVKQFM28tcbeX-2" source="H0pLZdyPVKQFM28tcbeX-2" target="H0pLZdyPVKQFM28tcbeX-7">
          <mxGeometry width="50" height="50" relative="1" as="geometry">
            <mxPoint x="310" y="280" as="sourcePoint" />
            <mxPoint x="360" y="230" as="targetPoint" />
          </mxGeometry>
        </mxCell>
        <mxCell id="H0pLZdyPVKQFM28tcbeX-13" value="                                 研产中心测维人员" style="shape=waypoint;sketch=0;size=6;pointerEvents=1;points=[];fillColor=none;resizable=0;rotatable=0;perimeter=centerPerimeter;snapToPoint=1;" vertex="1" parent="H0pLZdyPVKQFM28tcbeX-2">
          <mxGeometry x="10" y="130" width="20" height="20" as="geometry" />
        </mxCell>
        <mxCell id="H0pLZdyPVKQFM28tcbeX-17" value="                                 项目现场实施人员" style="shape=waypoint;sketch=0;size=6;pointerEvents=1;points=[];fillColor=none;resizable=0;rotatable=0;perimeter=centerPerimeter;snapToPoint=1;" vertex="1" parent="H0pLZdyPVKQFM28tcbeX-2">
          <mxGeometry x="10" y="170" width="20" height="20" as="geometry" />
        </mxCell>
        <mxCell id="H0pLZdyPVKQFM28tcbeX-18" value="" style="endArrow=none;html=1;rounded=0;entryX=0.5;entryY=1;entryDx=0;entryDy=0;exitX=0.5;exitY=0.987;exitDx=0;exitDy=0;exitPerimeter=0;" edge="1" parent="H0pLZdyPVKQFM28tcbeX-2" source="H0pLZdyPVKQFM28tcbeX-2" target="H0pLZdyPVKQFM28tcbeX-7">
          <mxGeometry width="50" height="50" relative="1" as="geometry">
            <mxPoint x="270" y="330" as="sourcePoint" />
            <mxPoint x="320" y="280" as="targetPoint" />
          </mxGeometry>
        </mxCell>
        <mxCell id="H0pLZdyPVKQFM28tcbeX-19" value="" style="ellipse;whiteSpace=wrap;html=1;aspect=fixed;" vertex="1" parent="H0pLZdyPVKQFM28tcbeX-2">
          <mxGeometry x="140" y="70" width="40" height="40" as="geometry" />
        </mxCell>
        <mxCell id="H0pLZdyPVKQFM28tcbeX-20" value="" style="shape=mxgraph.signs.healthcare.heart_1;html=1;pointerEvents=1;fillColor=#000000;strokeColor=none;verticalLabelPosition=bottom;verticalAlign=top;align=center;" vertex="1" parent="H0pLZdyPVKQFM28tcbeX-2">
          <mxGeometry x="150" y="80" width="20" height="20" as="geometry" />
        </mxCell>
        <mxCell id="H0pLZdyPVKQFM28tcbeX-21" value="需求" style="text;html=1;align=center;verticalAlign=middle;resizable=0;points=[];autosize=1;strokeColor=none;fillColor=none;" vertex="1" parent="H0pLZdyPVKQFM28tcbeX-2">
          <mxGeometry x="180" y="75" width="50" height="30" as="geometry" />
        </mxCell>
        <mxCell id="H0pLZdyPVKQFM28tcbeX-22" value="                               使用运维平台&#xa;                              实施与部署业务系统" style="shape=waypoint;sketch=0;size=6;pointerEvents=1;points=[];fillColor=none;resizable=0;rotatable=0;perimeter=centerPerimeter;snapToPoint=1;" vertex="1" parent="H0pLZdyPVKQFM28tcbeX-2">
          <mxGeometry x="140" y="130" width="20" height="20" as="geometry" />
        </mxCell>
        <mxCell id="H0pLZdyPVKQFM28tcbeX-24" value="                                 可视化的节点管理" style="shape=waypoint;sketch=0;size=6;pointerEvents=1;points=[];fillColor=none;resizable=0;rotatable=0;perimeter=centerPerimeter;snapToPoint=1;" vertex="1" parent="H0pLZdyPVKQFM28tcbeX-2">
          <mxGeometry x="140" y="160" width="20" height="20" as="geometry" />
        </mxCell>
        <mxCell id="H0pLZdyPVKQFM28tcbeX-25" value="                                 可视化的服务管理" style="shape=waypoint;sketch=0;size=6;pointerEvents=1;points=[];fillColor=none;resizable=0;rotatable=0;perimeter=centerPerimeter;snapToPoint=1;" vertex="1" parent="H0pLZdyPVKQFM28tcbeX-2">
          <mxGeometry x="140" y="190" width="20" height="20" as="geometry" />
        </mxCell>
        <mxCell id="H0pLZdyPVKQFM28tcbeX-23" value="                                 可视化的配置管理" style="shape=waypoint;sketch=0;size=6;pointerEvents=1;points=[];fillColor=none;resizable=0;rotatable=0;perimeter=centerPerimeter;snapToPoint=1;" vertex="1" parent="H0pLZdyPVKQFM28tcbeX-2">
          <mxGeometry x="140" y="220" width="20" height="20" as="geometry" />
        </mxCell>
        <mxCell id="H0pLZdyPVKQFM28tcbeX-26" value="&lt;span style=&quot;color: rgb(0, 0, 0); font-family: Helvetica; font-size: 12px; font-style: normal; font-variant-ligatures: normal; font-variant-caps: normal; font-weight: 400; letter-spacing: normal; orphans: 2; text-align: center; text-indent: 0px; text-transform: none; widows: 2; word-spacing: 0px; -webkit-text-stroke-width: 0px; white-space: nowrap; background-color: rgb(251, 251, 251); text-decoration-thickness: initial; text-decoration-style: initial; text-decoration-color: initial; display: inline !important; float: none;&quot;&gt;产品愿景板&lt;/span&gt;" style="text;whiteSpace=wrap;html=1;" vertex="1" parent="1">
          <mxGeometry x="30" y="40" width="90" height="30" as="geometry" />
        </mxCell>
      </root>
    </mxGraphModel>
  </diagram>
</mxfile>
